<?xml version="1.0" encoding="iso-8859-1"?>
<!-- Generator: Adobe Illustrator 19.0.0, SVG Export Plug-In . SVG Version: 6.00 Build 0)  -->
<svg version="1.1" id="Layer_1" xmlns="http://www.w3.org/2000/svg" xmlns:xlink="http://www.w3.org/1999/xlink" x="0px" y="0px"
	 viewBox="0 0 512 512" style="enable-background:new 0 0 512 512;" xml:space="preserve">
<g>
	<g>
		<path d="M418.472,0H93.528c-18.566,0-33.67,15.105-33.67,33.67v42.756V478.33c0,18.566,15.105,33.67,33.67,33.67h324.944
			c18.566,0,33.67-15.105,33.67-33.67V187.591c0-4.427-3.589-8.017-8.017-8.017c-4.427,0-8.017,3.589-8.017,8.017V478.33
			c0,9.725-7.912,17.637-17.637,17.637H93.528c-9.725,0-17.637-7.912-17.637-17.637V90.475l107.968,63.799
			c-0.001,0.061-0.01,0.12-0.01,0.181v96.754c-7.648,4.311-12.827,12.506-12.827,21.893V401.37c0,4.427,3.589,8.017,8.017,8.017
			H332.96c4.427,0,8.017-3.589,8.017-8.017V273.102c0-9.387-5.179-17.582-12.827-21.893v-96.94l107.958-63.794v62.911
			c0,4.427,3.589,8.017,8.017,8.017c4.427,0,8.017-3.589,8.017-8.017v-76.96V33.67C452.142,15.105,437.037,0,418.472,0z
			 M324.944,393.353H187.056V273.102c0-5.01,4.076-9.086,9.086-9.086h119.716c5.01,0,9.086,4.076,9.086,9.086V393.353z
			 M199.883,247.983v-84.241l9.62,5.684v78.556H199.883z M225.537,247.983v-69.081l8.984,5.309
			c6.624,3.914,14.052,5.871,21.479,5.871s14.854-1.957,21.479-5.871l8.984-5.309v69.081H225.537z M273.102,123.992H256
			c-2.652,0-4.81-2.158-4.81-4.81s2.158-4.81,4.81-4.81h17.102c21.513,0,39.015,17.502,39.015,39.015v94.597h-9.62v-94.597
			C302.497,137.178,289.311,123.992,273.102,123.992z M436.109,71.851L325.69,137.098c-6.961-22.426-27.902-38.76-52.587-38.76H256
			c-11.493,0-20.843,9.351-20.843,20.843s9.351,20.843,20.843,20.843h17.102c7.368,0,13.361,5.993,13.361,13.361v6.892
			l-17.141,10.129c-8.218,4.855-18.428,4.855-26.645,0L75.891,71.851V33.67c0-9.725,7.912-17.637,17.637-17.637h324.944
			c9.725,0,17.637,7.912,17.637,17.637V71.851z"/>
	</g>
</g>
<g>
	<g>
		<path d="M256,282.188c-18.566,0-33.67,15.104-33.67,33.67c0,15.804,10.947,29.091,25.653,32.699v18.608
			c0,4.427,3.589,8.017,8.017,8.017s8.017-3.589,8.017-8.017v-18.608c14.707-3.606,25.653-16.895,25.653-32.699
			C289.67,297.292,274.566,282.188,256,282.188z M256,333.495c-9.725,0-17.637-7.912-17.637-17.637s7.912-17.637,17.637-17.637
			s17.637,7.912,17.637,17.637S265.725,333.495,256,333.495z"/>
	</g>
</g>
<g>
</g>
<g>
</g>
<g>
</g>
<g>
</g>
<g>
</g>
<g>
</g>
<g>
</g>
<g>
</g>
<g>
</g>
<g>
</g>
<g>
</g>
<g>
</g>
<g>
</g>
<g>
</g>
<g>
</g>
</svg>
