<?xml version="1.0" encoding="iso-8859-1"?>
<!-- Generator: Adobe Illustrator 19.0.0, SVG Export Plug-In . SVG Version: 6.00 Build 0)  -->
<svg version="1.1" id="Layer_1" xmlns="http://www.w3.org/2000/svg" xmlns:xlink="http://www.w3.org/1999/xlink" x="0px" y="0px"
	 viewBox="0 0 512 512" style="enable-background:new 0 0 512 512;" xml:space="preserve">
<g>
	<g>
		<path d="M432.884,340.207c-0.004-0.005-0.009-0.01-0.013-0.015l-111.425-122.58c-4.355-4.812-6.759-11.036-6.769-17.527
			L314.341,8.359c-0.007-4.414-3.583-7.992-7.995-8.003L169.885,0c-0.008,0-0.014,0-0.021,0c-2.122,0-4.159,0.841-5.661,2.34
			c-1.508,1.504-2.356,3.547-2.356,5.677v34.986l-94.575-0.247c-0.008,0-0.014,0-0.021,0c-2.122,0-4.159,0.841-5.661,2.34
			c-1.508,1.504-2.356,3.547-2.356,5.677v217.66c0,27.026,9.862,53.059,27.779,73.315l128.153,144.192
			c13.837,15.644,32.944,24.86,53.803,25.952c1.386,0.073,2.765,0.11,4.143,0.109c19.346,0,37.703-7.125,52.076-20.3
			c8.748-8.019,15.47-17.854,19.74-28.781c8.325,3.597,17.311,5.728,26.654,6.218c1.386,0.073,2.765,0.109,4.143,0.109
			c19.346,0,37.703-7.125,52.076-20.301C458.986,420.358,461.267,371.579,432.884,340.207z M298.643,200.111
			c0.017,10.463,3.893,20.499,10.926,28.272l99.782,109.771l-93.914,78.261l-78.244-88.039
			c16.673-15.991,26.198-38.166,26.198-61.329c0-46.857-38.12-84.977-84.977-84.977c-0.177,0-0.356,0.006-0.534,0.008V84.442h120.56
			L298.643,200.111z M280.494,16.322l17.828,0.046l0.091,52.041h-17.919V16.322z M246.289,16.233l18.171,0.047v52.129h-18.171
			V16.233z M212.085,16.143l18.171,0.047v52.218h-18.171V16.143z M177.88,51.081c0-0.006,0.001-0.013,0.001-0.019
			c0-0.007-0.001-0.014-0.001-0.021V16.055l18.171,0.047v52.307H177.88V51.081z M177.88,198.119
			c0.179-0.001,0.357-0.015,0.534-0.015c38.015,0,68.943,30.928,68.943,68.943c0,18.59-7.559,36.401-20.817,49.344l-24.918-28.037
			c-15.311-17.307-23.743-39.568-23.743-62.678V198.119z M143.676,58.989l18.171,0.047v52.129h-18.171V58.989z M109.472,58.899
			l18.171,0.047v52.218h-18.171V58.899z M75.267,58.81l18.171,0.047v52.307H75.267V58.81z M99.01,331.11
			c-15.311-17.309-23.743-39.568-23.743-62.677v-27.558c0.178-0.001,0.357-0.015,0.534-0.015c38.015,0,68.943,30.928,68.943,68.943
			c0,18.59-7.559,36.401-20.817,49.344L99.01,331.11z M212.825,459.17l-78.245-88.039c16.673-15.991,26.198-38.166,26.198-61.329
			c0-46.857-38.12-84.977-84.977-84.977c-0.177,0-0.356,0.006-0.534,0.007v-97.635h86.58v98.479c0,27.026,9.862,53.059,27.78,73.315
			l91.656,103.129L212.825,459.17z M314.354,479.88c-12.199,11.183-28.039,16.88-44.547,16
			c-16.527-0.865-31.667-8.168-42.644-20.577l-3.681-4.142l68.459-57.051l25.839,29.074c3.936,4.45,8.311,8.36,13.018,11.73
			C327.487,464.435,321.861,472.999,314.354,479.88z M416.967,437.124c-12.2,11.183-28.028,16.879-44.547,16
			c-16.527-0.865-31.667-8.168-42.644-20.577l-3.681-4.142l94.052-78.376l0.855,0.941
			C443.487,375.828,441.677,414.475,416.967,437.124z"/>
	</g>
</g>
<g>
</g>
<g>
</g>
<g>
</g>
<g>
</g>
<g>
</g>
<g>
</g>
<g>
</g>
<g>
</g>
<g>
</g>
<g>
</g>
<g>
</g>
<g>
</g>
<g>
</g>
<g>
</g>
<g>
</g>
</svg>
